<svg id="Group_72089" data-name="Group 72089" xmlns="http://www.w3.org/2000/svg" xmlns:xlink="http://www.w3.org/1999/xlink" width="13.545" height="13.545" viewBox="0 0 13.545 13.545">
  <defs>
    <clipPath id="clip-path">
      <rect id="Rectangle_25407" data-name="Rectangle 25407" width="13.545" height="13.545" fill="#6c65c8"/>
    </clipPath>
  </defs>
  <g id="Group_72082" data-name="Group 72082" clip-path="url(#clip-path)">
    <path id="Path_51378" data-name="Path 51378" d="M5.594,10.845c-.249-.023-.5-.039-.745-.072a.187.187,0,0,0-.185.062c-.107.114-.27.205-.315.338-.039.116.057.275.088.416a1.608,1.608,0,0,1-1.164,1.905A1.591,1.591,0,0,1,1.34,12.367a.2.2,0,0,0-.163-.159,1.6,1.6,0,1,1,1.06-3,.141.141,0,0,0,.193-.036c.108-.119.274-.211.325-.349s-.035-.31-.027-.466c.025-.538.037-1.079.1-1.613A10.971,10.971,0,0,1,4.249,2.551,9.438,9.438,0,0,1,5.584.774,2.481,2.481,0,0,1,7.539,0,4.651,4.651,0,0,1,9.673.614a7.709,7.709,0,0,1,3.559,3.924A3.823,3.823,0,0,1,13.5,6.58a2.353,2.353,0,0,1-.71,1.357,9.77,9.77,0,0,1-3.063,1.99,12.136,12.136,0,0,1-4.138.918m7.145-4.756a3.716,3.716,0,0,0-.248-1.178A6.789,6.789,0,0,0,9.1,1.252,3.5,3.5,0,0,0,7.186.836,1.365,1.365,0,0,0,5.915,1.943a2.677,2.677,0,0,0,.138,1.506A6.728,6.728,0,0,0,9.444,7.228a3.66,3.66,0,0,0,1.8.451,1.388,1.388,0,0,0,1.422-1.072c.042-.169.052-.345.077-.518m-9.62,3.52c-.126.134-.25.27-.379.4a.422.422,0,0,1-.649.05.789.789,0,0,0-.939-.026.775.775,0,0,0-.3.851.751.751,0,0,0,.75.558.459.459,0,0,1,.5.5.742.742,0,0,0,.556.75.781.781,0,0,0,.829-1.236.421.421,0,0,1,.049-.649c.133-.132.272-.258.4-.384-.163-.138-.307-.246-.434-.373s-.242-.277-.387-.445" transform="translate(0 -0.001)" fill="#6c65c8"/>
    <path id="Path_51379" data-name="Path 51379" d="M217.929,79.154a.724.724,0,0,1-.517-.2c-.3-.288-.6-.575-.88-.883a.763.763,0,0,1,.032-1.076.75.75,0,0,1,1.062-.071,11.026,11.026,0,0,1,.941.941.7.7,0,0,1,.091.834.8.8,0,0,1-.728.459" transform="translate(-208.119 -73.821)" fill="#6c65c8"/>
  </g>
</svg>
