<svg xmlns="http://www.w3.org/2000/svg" width="9.5" height="5.437" viewBox="0 0 9.5 5.437">
  <path id="Union_46" data-name="Union 46" d="M4.226,5.187Q2.234,3.2.244,1.205A.772.772,0,0,1,0,.666.649.649,0,0,1,.208.194a.681.681,0,0,1,1,.047L3.37,2.407l1.3,1.3c.024.025.05.05.077.076.028-.026.054-.05.079-.076L7.316,1.222,8.311.228A.683.683,0,0,1,9.483.543.654.654,0,0,1,9.5.691a.715.715,0,0,1-.243.515q-.953.95-1.9,1.9L6.227,4.235q-.477.477-.953.952a.749.749,0,0,1-.524.249A.745.745,0,0,1,4.226,5.187Z" fill="#1d2b95"/>
</svg>
