<svg xmlns="http://www.w3.org/2000/svg" width="22.088" height="22.174" viewBox="0 0 22.088 22.174">
  <g id="whatsapp-logo-4454" transform="translate(0.105 0.1)">
    <path id="Path_19835" data-name="Path 19835" d="M1.259,21.974a.733.733,0,0,1-.707-.926l1.363-4.977a10.909,10.909,0,0,1-1.3-5.163v-.014a10.9,10.9,0,1,1,5.947,9.715L1.445,21.95A.73.73,0,0,1,1.259,21.974ZM6.648,19.1A.732.732,0,0,1,7,19.185a9.435,9.435,0,1,0-4.922-8.3V10.9A9.437,9.437,0,0,0,3.336,15.61a.732.732,0,0,1,.072.56L2.3,20.211,6.463,19.12A.737.737,0,0,1,6.648,19.1Z" transform="translate(-0.527 0)" fill="#2ab540" stroke="#2ab540" stroke-width="0.2"/>
    <path id="Path_19836" data-name="Path 19836" d="M70.115,71.813c-.19-.423-.391-.431-.572-.439-.148-.006-.318-.006-.487-.006a.933.933,0,0,0-.677.318,2.847,2.847,0,0,0-.889,2.118,4.943,4.943,0,0,0,1.037,2.627,10.426,10.426,0,0,0,4.339,3.834c2.146.846,2.582.678,3.048.636a2.565,2.565,0,0,0,1.714-1.207,2.122,2.122,0,0,0,.148-1.208c-.063-.106-.233-.169-.487-.3s-1.5-.742-1.736-.826-.4-.127-.572.127-.656.826-.8,1-.3.191-.55.064a6.953,6.953,0,0,1-2.043-1.261,7.651,7.651,0,0,1-1.413-1.759c-.148-.254-.016-.392.112-.518s.254-.3.381-.445a1.744,1.744,0,0,0,.254-.424A.467.467,0,0,0,70.9,73.7c-.064-.127-.557-1.383-.783-1.885" transform="translate(-61.672 -65.168)" fill="#2ab540" stroke="#2ab540" stroke-width="0.2"/>
  </g>
</svg>
