<svg xmlns="http://www.w3.org/2000/svg" width="14" height="14" viewBox="0 0 14 14">
  <g id="Group_71965" data-name="Group 71965" transform="translate(-295 -6453)">
    <g id="Group_3453" data-name="Group 3453" transform="translate(295 6453)">
      <g id="Group_3452" data-name="Group 3452">
        <path id="Path_8454" data-name="Path 8454" d="M14-10H0V-24H14Z" transform="translate(0 24)" fill="none" fill-rule="evenodd"/>
        <path id="Path_8455" data-name="Path 8455" d="M13.343,7.814a1.147,1.147,0,0,1-.191-1.336,1.148,1.148,0,0,0,.031-1.011,1.132,1.132,0,0,0-.778-.638,1.136,1.136,0,0,1-.877-1.02,1.141,1.141,0,0,0-.516-.867,1.122,1.122,0,0,0-1-.112,1.125,1.125,0,0,1-1.285-.38,1.125,1.125,0,0,0-1.8,0,1.125,1.125,0,0,1-1.284.38,1.122,1.122,0,0,0-1,.112,1.141,1.141,0,0,0-.516.867,1.137,1.137,0,0,1-.877,1.02,1.132,1.132,0,0,0-.778.638,1.147,1.147,0,0,0,.032,1.011,1.147,1.147,0,0,1-.191,1.336A1.145,1.145,0,0,0,2.58,9.608a1.143,1.143,0,0,1,.556,1.228,1.147,1.147,0,0,0,.252.979,1.126,1.126,0,0,0,.925.391,1.129,1.129,0,0,1,1.126.73,1.134,1.134,0,0,0,.737.686,1.122,1.122,0,0,0,.988-.175,1.123,1.123,0,0,1,1.339,0,1.126,1.126,0,0,0,1.725-.51,1.13,1.13,0,0,1,1.126-.73,1.125,1.125,0,0,0,.925-.391,1.147,1.147,0,0,0,.253-.979,1.143,1.143,0,0,1,.556-1.228,1.145,1.145,0,0,0,.255-1.794Z" transform="translate(-0.833 -0.833)" fill="#188e51" fill-rule="evenodd"/>
      </g>
    </g>
    <path id="Path_8456" data-name="Path 8456" d="M314.257,6459.6l1.289,1.433,2.924-2.627" transform="translate(-14.3 0.436)" fill="none" stroke="#fff" stroke-linecap="round" stroke-linejoin="round" stroke-width="1"/>
  </g>
</svg>
