<svg xmlns="http://www.w3.org/2000/svg" width="15.5" height="9.5" viewBox="0 0 15.5 9.5">
  <path id="Union_254" data-name="Union 254" d="M9546.219-9361.721a.744.744,0,0,1-.218-.529.744.744,0,0,1,.218-.53l2.721-2.721h-12.188a.75.75,0,0,1-.751-.748.75.75,0,0,1,.751-.75h12.188l-2.721-2.721a.75.75,0,0,1-.218-.532.749.749,0,0,1,.218-.53.758.758,0,0,1,.53-.218.754.754,0,0,1,.532.218l4,4a.749.749,0,0,1,.221.532.748.748,0,0,1-.221.53l-4,4a.753.753,0,0,1-.532.221A.748.748,0,0,1,9546.219-9361.721Z" transform="translate(-9536 9371)" fill="#1d2b95"/>
</svg>
