<svg xmlns="http://www.w3.org/2000/svg" xmlns:xlink="http://www.w3.org/1999/xlink" width="6.1" height="10.812" viewBox="0 0 6.1 10.812">
  <defs>
    <clipPath id="clip-path">
      <rect id="Rectangle_25466" data-name="Rectangle 25466" width="6.1" height="10.812" fill="#1d2b95"/>
    </clipPath>
  </defs>
  <g id="Group_72164" data-name="Group 72164" transform="translate(0 0)">
    <g id="Group_72163" data-name="Group 72163" transform="translate(0 0)" clip-path="url(#clip-path)">
      <path id="Path_51157" data-name="Path 51157" d="M2.021,5.784H1.766c-.494,0-.988,0-1.482,0C0,5.781-.064,5.677.059,5.43Q1.369,2.8,2.681.18A.291.291,0,0,1,2.979,0c.9.005,1.792,0,2.688.007.087,0,.217.037.249.1a.333.333,0,0,1-.054.264c-.624,1-1.255,1.99-1.884,2.984-.045.071-.087.142-.147.24.088.006.153.014.218.014.593,0,1.185,0,1.778.005.094,0,.249.047.265.1A.38.38,0,0,1,6,4.01Q3.2,7.358.376,10.693a.333.333,0,0,1-.274.113c-.156-.06-.1-.2-.049-.325Q.995,8.245,1.934,6.008c.026-.063.05-.127.087-.224" transform="translate(0 0)" fill="#1d2b95"/>
    </g>
  </g>
</svg>
