<svg xmlns="http://www.w3.org/2000/svg" xmlns:xlink="http://www.w3.org/1999/xlink" width="1366" height="366" viewBox="0 0 1366 366">
  <defs>
    <clipPath id="clip-path">
      <rect id="Rectangle_26350" data-name="Rectangle 26350" width="1366" height="366" transform="translate(0 3907)" fill="#e9ebff" stroke="#707070" stroke-width="1"/>
    </clipPath>
  </defs>
  <g id="Mask_Group_297" data-name="Mask Group 297" transform="translate(1366 4273) rotate(180)" clip-path="url(#clip-path)">
    <g id="Group_73057" data-name="Group 73057" transform="translate(-170 3909.241)">
      <path id="Union_244" data-name="Union 244" d="M0,628.646V8.045A37.213,37.213,0,0,0,3.972,7.78,25.4,25.4,0,0,0,12.26,5.321c1.6-.791,3.181-1.632,4.78-2.425A26.382,26.382,0,0,1,23.359.662,33.2,33.2,0,0,1,28.441.048a33.912,33.912,0,0,1,8.076.535,25.265,25.265,0,0,1,6.634,2.291c1.379.691,2.748,1.41,4.12,2.119a26.39,26.39,0,0,0,9.8,2.892,39.755,39.755,0,0,0,4.1.162,37.1,37.1,0,0,0,3.972-.266,25.4,25.4,0,0,0,8.288-2.459c1.6-.791,3.181-1.632,4.78-2.425A26.388,26.388,0,0,1,84.534.662,33.173,33.173,0,0,1,89.615.048,33.908,33.908,0,0,1,97.69.583a25.265,25.265,0,0,1,6.634,2.291c1.379.691,2.748,1.41,4.12,2.119a26.4,26.4,0,0,0,9.8,2.892,39.8,39.8,0,0,0,3.991.163v0a37.212,37.212,0,0,0,3.972-.265A25.4,25.4,0,0,0,134.5,5.321c1.6-.791,3.181-1.632,4.779-2.425A26.394,26.394,0,0,1,145.6.662,33.159,33.159,0,0,1,150.68.048a33.912,33.912,0,0,1,8.076.535,25.265,25.265,0,0,1,6.634,2.291c1.379.691,2.748,1.41,4.12,2.119a26.39,26.39,0,0,0,9.8,2.892,39.756,39.756,0,0,0,4.1.162,37.107,37.107,0,0,0,3.972-.266,25.4,25.4,0,0,0,8.288-2.459c1.6-.791,3.181-1.632,4.78-2.425A26.388,26.388,0,0,1,206.773.662a33.174,33.174,0,0,1,5.081-.614,33.908,33.908,0,0,1,8.076.535,25.265,25.265,0,0,1,6.634,2.291c1.379.691,2.749,1.41,4.121,2.119a26.374,26.374,0,0,0,9.8,2.892,39.787,39.787,0,0,0,4.1.162,37.5,37.5,0,0,0,3.973-.266,25.381,25.381,0,0,0,8.286-2.459c1.6-.791,3.182-1.632,4.781-2.425A26.374,26.374,0,0,1,267.947.662a33.171,33.171,0,0,1,5.082-.614A33.906,33.906,0,0,1,281.1.583a25.265,25.265,0,0,1,6.634,2.291c1.379.691,2.749,1.41,4.121,2.119a26.379,26.379,0,0,0,9.8,2.892,39.761,39.761,0,0,0,4.1.162,37.5,37.5,0,0,0,3.973-.266,25.392,25.392,0,0,0,8.287-2.459c1.6-.791,3.182-1.632,4.78-2.425A26.375,26.375,0,0,1,329.121.662,33.171,33.171,0,0,1,334.2.048a33.9,33.9,0,0,1,8.074.535,25.254,25.254,0,0,1,6.634,2.291c1.379.691,2.75,1.41,4.121,2.119a26.378,26.378,0,0,0,9.8,2.892,39.5,39.5,0,0,0,3.99.163v0A37.231,37.231,0,0,0,370.8,7.78a25.387,25.387,0,0,0,8.286-2.459c1.6-.791,3.182-1.632,4.78-2.425A26.4,26.4,0,0,1,390.186.662a33.171,33.171,0,0,1,5.082-.614,33.906,33.906,0,0,1,8.074.535,25.264,25.264,0,0,1,6.634,2.291c1.379.691,2.749,1.41,4.121,2.119a26.374,26.374,0,0,0,9.8,2.892,39.761,39.761,0,0,0,4.1.162v620.6Z" transform="translate(0 0)" fill="#fcfcfc"/>
      <path id="Union_245" data-name="Union 245" d="M0,628.646V8.045A37.213,37.213,0,0,0,3.972,7.78,25.4,25.4,0,0,0,12.26,5.321c1.6-.791,3.181-1.632,4.78-2.425A26.382,26.382,0,0,1,23.359.662,33.2,33.2,0,0,1,28.441.048a33.912,33.912,0,0,1,8.076.535,25.265,25.265,0,0,1,6.634,2.291c1.379.691,2.748,1.41,4.12,2.119a26.39,26.39,0,0,0,9.8,2.892,39.755,39.755,0,0,0,4.1.162,37.1,37.1,0,0,0,3.972-.266,25.4,25.4,0,0,0,8.288-2.459c1.6-.791,3.181-1.632,4.78-2.425A26.388,26.388,0,0,1,84.534.662,33.173,33.173,0,0,1,89.615.048,33.908,33.908,0,0,1,97.69.583a25.265,25.265,0,0,1,6.634,2.291c1.379.691,2.748,1.41,4.12,2.119a26.4,26.4,0,0,0,9.8,2.892,39.8,39.8,0,0,0,3.991.163v0a37.212,37.212,0,0,0,3.972-.265A25.4,25.4,0,0,0,134.5,5.321c1.6-.791,3.181-1.632,4.779-2.425A26.394,26.394,0,0,1,145.6.662,33.159,33.159,0,0,1,150.68.048a33.912,33.912,0,0,1,8.076.535,25.265,25.265,0,0,1,6.634,2.291c1.379.691,2.748,1.41,4.12,2.119a26.39,26.39,0,0,0,9.8,2.892,39.756,39.756,0,0,0,4.1.162,37.107,37.107,0,0,0,3.972-.266,25.4,25.4,0,0,0,8.288-2.459c1.6-.791,3.181-1.632,4.78-2.425A26.388,26.388,0,0,1,206.773.662a33.174,33.174,0,0,1,5.081-.614,33.908,33.908,0,0,1,8.076.535,25.265,25.265,0,0,1,6.634,2.291c1.379.691,2.749,1.41,4.121,2.119a26.374,26.374,0,0,0,9.8,2.892,39.787,39.787,0,0,0,4.1.162,37.5,37.5,0,0,0,3.973-.266,25.381,25.381,0,0,0,8.286-2.459c1.6-.791,3.182-1.632,4.781-2.425A26.374,26.374,0,0,1,267.947.662a33.171,33.171,0,0,1,5.082-.614A33.906,33.906,0,0,1,281.1.583a25.265,25.265,0,0,1,6.634,2.291c1.379.691,2.749,1.41,4.121,2.119a26.379,26.379,0,0,0,9.8,2.892,39.761,39.761,0,0,0,4.1.162,37.5,37.5,0,0,0,3.973-.266,25.392,25.392,0,0,0,8.287-2.459c1.6-.791,3.182-1.632,4.78-2.425A26.375,26.375,0,0,1,329.121.662,33.171,33.171,0,0,1,334.2.048a33.9,33.9,0,0,1,8.074.535,25.254,25.254,0,0,1,6.634,2.291c1.379.691,2.75,1.41,4.121,2.119a26.378,26.378,0,0,0,9.8,2.892,39.5,39.5,0,0,0,3.99.163v0A37.231,37.231,0,0,0,370.8,7.78a25.387,25.387,0,0,0,8.286-2.459c1.6-.791,3.182-1.632,4.78-2.425A26.4,26.4,0,0,1,390.186.662a33.171,33.171,0,0,1,5.082-.614,33.906,33.906,0,0,1,8.074.535,25.264,25.264,0,0,1,6.634,2.291c1.379.691,2.749,1.41,4.121,2.119a26.374,26.374,0,0,0,9.8,2.892,39.761,39.761,0,0,0,4.1.162v620.6Z" transform="translate(426 0)" fill="#fcfcfc"/>
      <path id="Union_246" data-name="Union 246" d="M0,628.646V8.045A37.213,37.213,0,0,0,3.972,7.78,25.4,25.4,0,0,0,12.26,5.321c1.6-.791,3.181-1.632,4.78-2.425A26.382,26.382,0,0,1,23.359.662,33.2,33.2,0,0,1,28.441.048a33.912,33.912,0,0,1,8.076.535,25.265,25.265,0,0,1,6.634,2.291c1.379.691,2.748,1.41,4.12,2.119a26.39,26.39,0,0,0,9.8,2.892,39.755,39.755,0,0,0,4.1.162,37.1,37.1,0,0,0,3.972-.266,25.4,25.4,0,0,0,8.288-2.459c1.6-.791,3.181-1.632,4.78-2.425A26.388,26.388,0,0,1,84.534.662,33.173,33.173,0,0,1,89.615.048,33.908,33.908,0,0,1,97.69.583a25.265,25.265,0,0,1,6.634,2.291c1.379.691,2.748,1.41,4.12,2.119a26.4,26.4,0,0,0,9.8,2.892,39.8,39.8,0,0,0,3.991.163v0a37.212,37.212,0,0,0,3.972-.265A25.4,25.4,0,0,0,134.5,5.321c1.6-.791,3.181-1.632,4.779-2.425A26.394,26.394,0,0,1,145.6.662,33.159,33.159,0,0,1,150.68.048a33.912,33.912,0,0,1,8.076.535,25.265,25.265,0,0,1,6.634,2.291c1.379.691,2.748,1.41,4.12,2.119a26.39,26.39,0,0,0,9.8,2.892,39.756,39.756,0,0,0,4.1.162,37.107,37.107,0,0,0,3.972-.266,25.4,25.4,0,0,0,8.288-2.459c1.6-.791,3.181-1.632,4.78-2.425A26.388,26.388,0,0,1,206.773.662a33.174,33.174,0,0,1,5.081-.614,33.908,33.908,0,0,1,8.076.535,25.265,25.265,0,0,1,6.634,2.291c1.379.691,2.749,1.41,4.121,2.119a26.374,26.374,0,0,0,9.8,2.892,39.787,39.787,0,0,0,4.1.162,37.5,37.5,0,0,0,3.973-.266,25.381,25.381,0,0,0,8.286-2.459c1.6-.791,3.182-1.632,4.781-2.425A26.374,26.374,0,0,1,267.947.662a33.171,33.171,0,0,1,5.082-.614A33.906,33.906,0,0,1,281.1.583a25.265,25.265,0,0,1,6.634,2.291c1.379.691,2.749,1.41,4.121,2.119a26.379,26.379,0,0,0,9.8,2.892,39.761,39.761,0,0,0,4.1.162,37.5,37.5,0,0,0,3.973-.266,25.392,25.392,0,0,0,8.287-2.459c1.6-.791,3.182-1.632,4.78-2.425A26.375,26.375,0,0,1,329.121.662,33.171,33.171,0,0,1,334.2.048a33.9,33.9,0,0,1,8.074.535,25.254,25.254,0,0,1,6.634,2.291c1.379.691,2.75,1.41,4.121,2.119a26.378,26.378,0,0,0,9.8,2.892,39.5,39.5,0,0,0,3.99.163v0A37.231,37.231,0,0,0,370.8,7.78a25.387,25.387,0,0,0,8.286-2.459c1.6-.791,3.182-1.632,4.78-2.425A26.4,26.4,0,0,1,390.186.662a33.171,33.171,0,0,1,5.082-.614,33.906,33.906,0,0,1,8.074.535,25.264,25.264,0,0,1,6.634,2.291c1.379.691,2.749,1.41,4.121,2.119a26.374,26.374,0,0,0,9.8,2.892,39.761,39.761,0,0,0,4.1.162v620.6Z" transform="translate(852 0)" fill="#fcfcfc"/>
      <path id="Union_247" data-name="Union 247" d="M0,628.646V8.045A37.213,37.213,0,0,0,3.972,7.78,25.4,25.4,0,0,0,12.26,5.321c1.6-.791,3.181-1.632,4.78-2.425A26.382,26.382,0,0,1,23.359.662,33.2,33.2,0,0,1,28.441.048a33.912,33.912,0,0,1,8.076.535,25.265,25.265,0,0,1,6.634,2.291c1.379.691,2.748,1.41,4.12,2.119a26.39,26.39,0,0,0,9.8,2.892,39.755,39.755,0,0,0,4.1.162,37.1,37.1,0,0,0,3.972-.266,25.4,25.4,0,0,0,8.288-2.459c1.6-.791,3.181-1.632,4.78-2.425A26.388,26.388,0,0,1,84.534.662,33.173,33.173,0,0,1,89.615.048,33.908,33.908,0,0,1,97.69.583a25.265,25.265,0,0,1,6.634,2.291c1.379.691,2.748,1.41,4.12,2.119a26.4,26.4,0,0,0,9.8,2.892,39.8,39.8,0,0,0,3.991.163v0a37.212,37.212,0,0,0,3.972-.265A25.4,25.4,0,0,0,134.5,5.321c1.6-.791,3.181-1.632,4.779-2.425A26.394,26.394,0,0,1,145.6.662,33.159,33.159,0,0,1,150.68.048a33.912,33.912,0,0,1,8.076.535,25.265,25.265,0,0,1,6.634,2.291c1.379.691,2.748,1.41,4.12,2.119a26.39,26.39,0,0,0,9.8,2.892,39.756,39.756,0,0,0,4.1.162,37.107,37.107,0,0,0,3.972-.266,25.4,25.4,0,0,0,8.288-2.459c1.6-.791,3.181-1.632,4.78-2.425A26.388,26.388,0,0,1,206.773.662a33.174,33.174,0,0,1,5.081-.614,33.908,33.908,0,0,1,8.076.535,25.265,25.265,0,0,1,6.634,2.291c1.379.691,2.749,1.41,4.121,2.119a26.374,26.374,0,0,0,9.8,2.892,39.787,39.787,0,0,0,4.1.162,37.5,37.5,0,0,0,3.973-.266,25.381,25.381,0,0,0,8.286-2.459c1.6-.791,3.182-1.632,4.781-2.425A26.374,26.374,0,0,1,267.947.662a33.171,33.171,0,0,1,5.082-.614A33.906,33.906,0,0,1,281.1.583a25.265,25.265,0,0,1,6.634,2.291c1.379.691,2.749,1.41,4.121,2.119a26.379,26.379,0,0,0,9.8,2.892,39.761,39.761,0,0,0,4.1.162,37.5,37.5,0,0,0,3.973-.266,25.392,25.392,0,0,0,8.287-2.459c1.6-.791,3.182-1.632,4.78-2.425A26.375,26.375,0,0,1,329.121.662,33.171,33.171,0,0,1,334.2.048a33.9,33.9,0,0,1,8.074.535,25.254,25.254,0,0,1,6.634,2.291c1.379.691,2.75,1.41,4.121,2.119a26.378,26.378,0,0,0,9.8,2.892,39.5,39.5,0,0,0,3.99.163v0A37.231,37.231,0,0,0,370.8,7.78a25.387,25.387,0,0,0,8.286-2.459c1.6-.791,3.182-1.632,4.78-2.425A26.4,26.4,0,0,1,390.186.662a33.171,33.171,0,0,1,5.082-.614,33.906,33.906,0,0,1,8.074.535,25.264,25.264,0,0,1,6.634,2.291c1.379.691,2.749,1.41,4.121,2.119a26.374,26.374,0,0,0,9.8,2.892,39.761,39.761,0,0,0,4.1.162v620.6Z" transform="translate(1277.999 0)" fill="#fcfcfc"/>
    </g>
  </g>
</svg>
